<?xml version="1.0" encoding="UTF-8" standalone="no"?>
<!DOCTYPE svg PUBLIC "-//W3C//DTD SVG 1.1//EN" "http://www.w3.org/Graphics/SVG/1.1/DTD/svg11.dtd">
<svg width="100%" height="100%" viewBox="0 0 91 76" version="1.1" xmlns="http://www.w3.org/2000/svg" xmlns:xlink="http://www.w3.org/1999/xlink" xml:space="preserve" xmlns:serif="http://www.serif.com/" style="fill-rule:evenodd;clip-rule:evenodd;stroke-linejoin:round;stroke-miterlimit:2;">
    <g transform="matrix(1,0,0,1,-4.74,-12.29)">
        <path d="M87.73,87.72L12.27,87.72C8.234,87.573 4.995,84.213 4.995,80.175C4.995,76.137 8.234,72.777 12.27,72.63L87.73,72.63C91.766,72.777 95.005,76.137 95.005,80.175C95.005,84.213 91.766,87.573 87.73,87.72Z" style="fill-rule:nonzero;"/>
        <path d="M87.73,57.54L12.27,57.54C8.234,57.393 4.995,54.033 4.995,49.995C4.995,45.957 8.234,42.597 12.27,42.45L87.73,42.45C91.766,42.597 95.005,45.957 95.005,49.995C95.005,54.033 91.766,57.393 87.73,57.54Z" style="fill-rule:nonzero;"/>
        <path d="M87.73,27.35L12.27,27.35C8.139,27.35 4.74,23.951 4.74,19.82C4.74,15.689 8.139,12.29 12.27,12.29L87.73,12.29C91.861,12.29 95.26,15.689 95.26,19.82C95.26,23.951 91.861,27.35 87.73,27.35Z" style="fill-rule:nonzero;"/>
    </g>
</svg>
