<?xml version="1.0" encoding="UTF-8" standalone="no"?>
<!DOCTYPE svg PUBLIC "-//W3C//DTD SVG 1.1//EN" "http://www.w3.org/Graphics/SVG/1.1/DTD/svg11.dtd">
<svg width="100%" height="100%" viewBox="0 0 91 91" version="1.1" xmlns="http://www.w3.org/2000/svg" xmlns:xlink="http://www.w3.org/1999/xlink" xml:space="preserve" xmlns:serif="http://www.serif.com/" style="fill-rule:evenodd;clip-rule:evenodd;stroke-linejoin:round;stroke-miterlimit:2;">
    <g transform="matrix(1,0,0,1,-4.96,-4.97)">
        <path d="M93.84,39.23C93.09,38.47 92.08,38.06 91.01,38.05L83.81,38.04C82.57,38.04 82.08,37.09 81.96,36.8C81.84,36.51 81.52,35.5 82.4,34.62L87.5,29.54C88.26,28.79 88.67,27.78 88.68,26.71C88.68,25.64 88.27,24.64 87.51,23.88L76.21,12.55C74.65,10.99 72.11,10.99 70.55,12.54L65.45,17.62C64.57,18.5 63.56,18.17 63.27,18.05C62.98,17.93 62.04,17.44 62.04,16.2L62.05,9C62.05,7.93 61.64,6.93 60.88,6.17C60.13,5.41 59.12,5 58.05,4.99L42.05,4.97L42.04,4.97C40.97,4.97 39.97,5.38 39.22,6.14C38.46,6.89 38.05,7.9 38.04,8.97L38.03,16.17C38.03,17.41 37.08,17.9 36.79,18.02C36.5,18.14 35.49,18.46 34.61,17.58L29.53,12.48C28.78,11.72 27.77,11.31 26.7,11.3L26.69,11.3C25.62,11.3 24.62,11.71 23.87,12.47L12.54,23.77C10.98,25.33 10.98,27.86 12.53,29.43L17.61,34.53C18.49,35.41 18.16,36.42 18.04,36.71C17.92,37 17.43,37.94 16.19,37.94L8.99,37.93L8.98,37.93C7.91,37.93 6.91,38.34 6.16,39.1C5.4,39.85 4.99,40.86 4.98,41.93L4.96,57.93C4.96,60.14 6.75,61.93 8.95,61.94L16.15,61.95C17.39,61.95 17.88,62.9 18,63.19C18.12,63.48 18.44,64.49 17.56,65.37L12.46,70.45C10.9,72.01 10.9,74.55 12.45,76.11L23.75,87.44C25.31,89 27.85,89.01 29.41,87.45L34.51,82.37C35.39,81.49 36.4,81.82 36.69,81.94C36.98,82.06 37.92,82.55 37.92,83.79L37.91,90.99C37.91,93.2 39.7,94.99 41.9,95L57.9,95.02L57.91,95.02C58.98,95.02 59.98,94.61 60.73,93.85C61.49,93.1 61.9,92.09 61.91,91.02L61.92,83.82C61.92,82.58 62.87,82.09 63.16,81.97C63.45,81.85 64.46,81.53 65.34,82.41L70.42,87.51C71.98,89.07 74.52,89.08 76.08,87.52L87.41,76.22C88.97,74.66 88.98,72.12 87.42,70.56L82.34,65.46C81.46,64.58 81.79,63.57 81.91,63.28C82.03,62.99 82.52,62.05 83.76,62.05L90.96,62.06L90.97,62.06C93.17,62.06 94.97,60.27 94.97,58.07L94.99,42.07C95.01,40.99 94.6,39.99 93.84,39.23ZM91.01,42.06L90.99,58.06L83.79,58.05L83.78,58.05C81.31,58.05 79.19,59.47 78.24,61.75C77.29,64.03 77.79,66.54 79.53,68.29L84.61,73.39L73.28,84.69L68.2,79.59C66.45,77.84 63.95,77.34 61.66,78.28C59.37,79.22 57.95,81.35 57.95,83.82L57.94,91.02L41.94,91L41.95,83.8C41.95,81.33 40.54,79.2 38.25,78.25C37.48,77.93 36.69,77.78 35.91,77.78C34.37,77.78 32.87,78.39 31.71,79.55L26.61,84.63L15.31,73.3L20.41,68.22C22.16,66.47 22.66,63.97 21.72,61.68C20.78,59.39 18.65,57.97 16.18,57.97L8.98,57.96L9,41.96L16.2,41.97C18.66,42 20.8,40.56 21.75,38.27C22.7,35.99 22.2,33.48 20.46,31.73L15.38,26.63L26.71,15.33L31.79,20.43C33.54,22.18 36.04,22.68 38.33,21.74C40.62,20.8 42.04,18.67 42.04,16.2L42.05,9L58.05,9.02L58.04,16.22C58.04,18.69 59.45,20.82 61.74,21.77C64.02,22.72 66.53,22.22 68.28,20.48L73.38,15.4L84.68,26.73L79.58,31.81C77.83,33.56 77.33,36.06 78.27,38.35C79.21,40.64 81.33,42.06 83.81,42.06L91.01,42.06ZM50,34C41.18,34 34,41.18 34,50C34,58.82 41.18,66 50,66C58.82,66 66,58.82 66,50C66,41.18 58.82,34 50,34ZM50,62C43.38,62 38,56.62 38,50C38,43.38 43.38,38 50,38C56.62,38 62,43.38 62,50C62,56.62 56.62,62 50,62Z" style="fill:white;fill-rule:nonzero;"/>
    </g>
</svg>
